<?xml version="1.0" encoding="UTF-8"?>
<svg version="1.1" xmlns="http://www.w3.org/2000/svg" width="174" height="176">
<path d="M0 0 C57.42 0 114.84 0 174 0 C174 58.08 174 116.16 174 176 C116.58 176 59.16 176 0 176 C0 117.92 0 59.84 0 0 Z " fill="#020203" transform="translate(0,0)"/>
<path d="M0 0 C27.06 0 54.12 0 82 0 C82 34.32 82 68.64 82 104 C79.06955453 101.06955453 76.33051509 98.32223883 73.6875 95.1875 C73.17574219 94.58292969 72.66398438 93.97835937 72.13671875 93.35546875 C71.76160156 92.90816406 71.38648438 92.46085937 71 92 C65.96419056 93.55617144 62.52453663 96.60741826 58.5625 99.9375 C57.12445369 101.12591512 55.6856386 102.31340052 54.24609375 103.5 C53.52921387 104.09296875 52.81233398 104.6859375 52.07373047 105.296875 C49.12375002 107.7196515 46.13167551 110.08567419 43.125 112.4375 C42.56554687 112.87578125 42.00609375 113.3140625 41.4296875 113.765625 C38.17648374 116.30970345 34.91505446 118.84313077 31.65234375 121.375 C30.12234397 122.56243317 28.59239672 123.74993404 27.0625 124.9375 C26.30348389 125.52660156 25.54446777 126.11570312 24.76245117 126.72265625 C19.78953916 130.58923741 14.85048147 134.49509989 9.9375 138.4375 C9.32366455 138.92959961 8.7098291 139.42169922 8.07739258 139.92871094 C5.44323115 142.0406532 2.80934914 144.1529426 0.17578125 146.265625 C-0.62472656 146.89984375 -1.42523438 147.5340625 -2.25 148.1875 C-2.91515625 148.71730469 -3.5803125 149.24710938 -4.265625 149.79296875 C-8.00124227 152.39275644 -11.58993336 152.45621379 -16 152 C-18.5625 149.9375 -18.5625 149.9375 -21 147 C-21.86625 146.030625 -22.7325 145.06125 -23.625 144.0625 C-27.64594969 139.31612124 -31.43991933 134.38508455 -35.26953125 129.484375 C-37.51145788 126.61706475 -39.7791522 123.77200071 -42.0625 120.9375 C-45.60608705 116.52445551 -49.06254593 112.0481483 -52.50024414 107.55249023 C-54.39409857 105.0774489 -56.3037293 102.63480167 -58.296875 100.23828125 C-60 98 -60 98 -60 96 C-60.99 95.67 -61.98 95.34 -63 95 C-66.69327378 89.82941671 -67.91999016 86.33771 -67 80 C-63.29138283 75.77259706 -58.87124253 72.32714075 -54.5 68.8125 C-53.79657471 68.24370117 -53.09314941 67.67490234 -52.3684082 67.08886719 C-46.98357594 62.7508322 -41.51917586 58.52678876 -36.01953125 54.3359375 C-33.08946367 52.06920993 -30.22699278 49.73888652 -27.375 47.375 C-22.8787173 43.65868471 -18.2272324 40.23040216 -13.48828125 36.83203125 C-10.81087041 34.86075074 -8.30810295 32.76780887 -5.81640625 30.5703125 C-1.98180127 27.25523465 2.03127563 24.15200939 6 21 C7.66711962 19.66723306 9.33391194 18.33405627 11 17 C9.3291771 13.20851726 6.89029808 10.07059704 4.375 6.8125 C0 1.12902607 0 1.12902607 0 0 Z " fill="#2BBFF8" transform="translate(92,0)"/>
<path d="M0 0 C0.99 0 1.98 0 3 0 C3.0270043 1.45823212 3.04639787 2.91660675 3.0625 4.375 C3.07410156 5.18710938 3.08570312 5.99921875 3.09765625 6.8359375 C3 9 3 9 2 11 C11.57 11.33 21.14 11.66 31 12 C31 30.81 31 49.62 31 69 C31.66 68.67 32.32 68.34 33 68 C35.6723621 67.86584528 38.32250488 67.95681459 41 68 C41.33 68.99 41.66 69.98 42 71 C40.35 71.33 38.7 71.66 37 72 C37 72.66 37 73.32 37 74 C39.97 74.66 42.94 75.32 46 76 C44.47874674 82.08501303 42.14618531 85.39767028 37 89 C33.36217368 90.21260877 30.82264001 90.39544552 27 90 C24.4375 87.9375 24.4375 87.9375 22 85 C21.13375 84.030625 20.2675 83.06125 19.375 82.0625 C15.35405031 77.31612124 11.56008067 72.38508455 7.73046875 67.484375 C5.48854212 64.61706475 3.2208478 61.77200071 0.9375 58.9375 C-2.60608705 54.52445551 -6.06254593 50.0481483 -9.50024414 45.55249023 C-11.39409857 43.0774489 -13.3037293 40.63480167 -15.296875 38.23828125 C-17 36 -17 36 -17 34 C-17.99 33.67 -18.98 33.34 -20 33 C-23.69327378 27.82941671 -24.91999016 24.33771 -24 18 C-21.83203125 15.5859375 -21.83203125 15.5859375 -19 13 C-18.05382812 12.12859375 -17.10765625 11.2571875 -16.1328125 10.359375 C-15.14023437 9.49828125 -14.14765625 8.6371875 -13.125 7.75 C-12.13757812 6.87859375 -11.15015625 6.0071875 -10.1328125 5.109375 C-6.63101112 2.75155362 -4.17096153 2.27179198 0 2 C0 1.34 0 0.68 0 0 Z " fill="#16D8F8" transform="translate(49,62)"/>
<path d="M0 0 C27.06 0 54.12 0 82 0 C76.38307108 5.61692892 76.38307108 5.61692892 73.35546875 7.875 C72.68676758 8.37862061 72.01806641 8.88224121 71.32910156 9.40112305 C70.26900879 10.19256714 70.26900879 10.19256714 69.1875 11 C63.28401892 15.45701316 57.47007304 19.99736087 51.75 24.6875 C47.00970039 28.57049296 42.24377237 32.40405281 37.375 36.125 C36.33472656 36.92035156 35.29445312 37.71570312 34.22265625 38.53515625 C33.43785889 39.13481201 33.43785889 39.13481201 32.63720703 39.74658203 C20.63302187 48.93678284 9.13763364 57.81648848 0 70 C0 46.9 0 23.8 0 0 Z " fill="#09E6F9" transform="translate(0,0)"/>
<path d="M0 0 C0 19.8 0 39.6 0 60 C-25.74 60 -51.48 60 -78 60 C-75.19669291 57.75735433 -72.44299311 55.55961848 -69.5625 53.4375 C-60.05407786 46.32856668 -50.82004602 38.89551355 -41.7265625 31.265625 C-37.89107929 28.07854726 -33.96160255 25.02793517 -30 22 C-27.95742249 20.43867235 -25.91564823 18.8763441 -23.875 17.3125 C-23.33649414 16.90080566 -22.79798828 16.48911133 -22.24316406 16.06494141 C-19.09541871 13.64775897 -15.98497839 11.19121107 -12.90234375 8.69140625 C-12.22123535 8.1399292 -11.54012695 7.58845215 -10.83837891 7.02026367 C-9.5051186 5.93749178 -8.17525922 4.85051645 -6.84912109 3.7590332 C-2.21967248 0 -2.21967248 0 0 0 Z " fill="#32B7F6" transform="translate(174,116)"/>
<path d="M0 0 C2.14136043 2.85514725 4.23586176 5.72415279 6.3125 8.625 C14.99146168 20.56254619 24.1842569 32.12755831 33.5612793 43.5222168 C36.64998066 47.28602218 39.62024451 51.1168654 42.52685547 55.02294922 C44.83830998 58.12506367 47.191921 61.19293379 49.5625 64.25 C50.01818359 64.848125 50.47386719 65.44625 50.94335938 66.0625 C54.61786967 70.78761708 58.44743316 74.53219251 64 77 C64 77.33 64 77.66 64 78 C42.88 78 21.76 78 0 78 C0 52.26 0 26.52 0 0 Z " fill="#09E7F9" transform="translate(0,98)"/>
<path d="M0 0 C21.78 0 43.56 0 66 0 C66 3.96 66 7.92 66 12 C57.09 12 48.18 12 39 12 C39 30.15 39 48.3 39 67 C35.04 67 31.08 67 27 67 C27 48.85 27 30.7 27 12 C18.09 12 9.18 12 0 12 C0 8.04 0 4.08 0 0 Z " fill="#010206" transform="translate(54,61)"/>
<path d="M0 0 C21.78 0 43.56 0 66 0 C66 3.96 66 7.92 66 12 C57.09 12 48.18 12 39 12 C39 30.15 39 48.3 39 67 C35.04 67 31.08 67 27 67 C27 48.85 27 30.7 27 12 C18.09 12 9.18 12 0 12 C0 8.04 0 4.08 0 0 Z M1 1 C1 4.3 1 7.6 1 11 C13.87 11.495 13.87 11.495 27 12 C27.33 29.82 27.66 47.64 28 66 C30.97 66 33.94 66 37 66 C37 65.35298126 37 64.70596252 37 64.03933716 C37 46.69289144 37 29.34644572 37 12 C46.24 11.67 55.48 11.34 65 11 C65 8.03 65 5.06 65 2 C63.93905414 0.71489224 63.93905414 0.71489224 61.48802185 0.87974548 C60.37105423 0.88196609 59.25408661 0.88418671 58.10327148 0.88647461 C56.21142372 0.88658791 56.21142372 0.88658791 54.28135681 0.88670349 C52.89460206 0.8918109 51.50784771 0.89702691 50.12109375 0.90234375 C48.71004791 0.90420799 47.29900143 0.90563186 45.88795471 0.90663147 C42.16759465 0.91045621 38.4472734 0.9202861 34.72692871 0.93133545 C30.93319219 0.94155052 27.13944942 0.94612929 23.34570312 0.95117188 C15.89711769 0.96190842 8.44856428 0.9789843 1 1 Z " fill="#001C2B" transform="translate(54,61)"/>
<path d="M0 0 C0 3 0 3 -1.35546875 4.5 C-1.96003906 4.995 -2.56460938 5.49 -3.1875 6 C-3.77917969 6.495 -4.37085937 6.99 -4.98046875 7.5 C-7.23211333 9.17240139 -9.58815345 10.57119859 -12 12 C-10.78184349 12.0154612 -10.78184349 12.0154612 -9.53907776 12.03123474 C-1.90163512 12.12903979 5.73572322 12.23152948 13.37303066 12.33933926 C17.29984614 12.39460415 21.22666901 12.4480297 25.15356445 12.49731445 C28.94020842 12.54490561 32.72675916 12.59724624 36.51329231 12.65294075 C37.96101638 12.67338818 39.40876603 12.69209724 40.85653496 12.70907402 C42.87764159 12.73306508 44.8986661 12.76370075 46.91967773 12.79467773 C48.07217514 12.81022202 49.22467255 12.8257663 50.41209412 12.84178162 C53 13 53 13 54 14 C54.07244053 16.01964199 54.08377188 18.04167124 54.0625 20.0625 C54.05347656 21.16722656 54.04445313 22.27195312 54.03515625 23.41015625 C54.02355469 24.26480469 54.01195313 25.11945313 54 26 C53.67 26 53.34 26 53 26 C53 22.37 53 18.74 53 15 C31.22 15 9.44 15 -13 15 C-13 18.96 -13 22.92 -13 27 C-13.99 27 -14.98 27 -16 27 C-15.67 23.37 -15.34 19.74 -15 16 C-15.99 16 -16.98 16 -18 16 C-18 16.66 -18 17.32 -18 18 C-19.65 18.33 -21.3 18.66 -23 19 C-16.02434826 11.84806825 -8.21998673 5.66265752 0 0 Z " fill="#46C1D9" transform="translate(67,46)"/>
<path d="M0 0 C0.495 1.485 0.495 1.485 1 3 C-3.75 7 -3.75 7 -6 7 C-6.226875 7.70125 -6.45375 8.4025 -6.6875 9.125 C-8.66683186 13.46067931 -11.63121688 16.63121688 -15 20 C-15.66515625 20.12246094 -16.3303125 20.24492188 -17.015625 20.37109375 C-19.16636747 20.80507516 -19.16636747 20.80507516 -20.046875 22.84765625 C-20.27890625 23.57855469 -20.5109375 24.30945313 -20.75 25.0625 C-20.99234375 25.79597656 -21.2346875 26.52945313 -21.484375 27.28515625 C-21.65453125 27.85105469 -21.8246875 28.41695312 -22 29 C-23.65 29 -25.3 29 -27 29 C-27.33 29.99 -27.66 30.98 -28 32 C-28.33 31.34 -28.66 30.68 -29 30 C-29.99 30 -30.98 30 -32 30 C-32.99 32.475 -32.99 32.475 -34 35 C-34.66 35 -35.32 35 -36 35 C-36 34.34 -36 33.68 -36 33 C-36.66 32.67 -37.32 32.34 -38 32 C-37.401875 31.608125 -36.80375 31.21625 -36.1875 30.8125 C-33.88193983 29.12675207 -33.88193983 29.12675207 -32.69140625 26.6328125 C-30.72705372 23.57513674 -28.74117842 22.10535789 -25.75 20.0625 C-21.93023117 17.3841562 -18.32075145 14.65981484 -14.82421875 11.578125 C-10.08753471 7.48043688 -5.21228686 3.4748579 0 0 Z " fill="#1CCFF3" transform="translate(101,19)"/>
<path d="M0 0 C1.51400391 0.01740234 1.51400391 0.01740234 3.05859375 0.03515625 C4.07050781 0.04417969 5.08242187 0.05320313 6.125 0.0625 C6.90746094 0.07410156 7.68992188 0.08570313 8.49609375 0.09765625 C4.55013709 4.26581241 0.27692956 7.66837064 -4.31640625 11.09765625 C-10.99333337 16.13873623 -17.53553671 21.31493697 -24.0090332 26.61401367 C-28.78178502 30.51965025 -33.60273852 34.35370868 -38.50390625 38.09765625 C-38.50390625 35.47651917 -38.1909818 33.58830513 -37.50390625 31.09765625 C-35.52390625 31.09765625 -33.54390625 31.09765625 -31.50390625 31.09765625 C-31.40078125 30.49953125 -31.29765625 29.90140625 -31.19140625 29.28515625 C-30.13054902 25.90970144 -28.37651319 24.57135716 -25.31640625 22.91015625 C-24.71828125 22.64203125 -24.12015625 22.37390625 -23.50390625 22.09765625 C-23.50390625 21.10765625 -23.50390625 20.11765625 -23.50390625 19.09765625 C-21.85390625 19.42765625 -20.20390625 19.75765625 -18.50390625 20.09765625 C-18.50390625 19.43765625 -18.50390625 18.77765625 -18.50390625 18.09765625 C-17.84390625 18.09765625 -17.18390625 18.09765625 -16.50390625 18.09765625 C-16.50390625 17.10765625 -16.50390625 16.11765625 -16.50390625 15.09765625 C-14.85390625 14.76765625 -13.20390625 14.43765625 -11.50390625 14.09765625 C-11.50390625 13.43765625 -11.50390625 12.77765625 -11.50390625 12.09765625 C-10.84390625 11.76765625 -10.18390625 11.43765625 -9.50390625 11.09765625 C-9.83390625 10.43765625 -10.16390625 9.77765625 -10.50390625 9.09765625 C-8.85390625 9.09765625 -7.20390625 9.09765625 -5.50390625 9.09765625 C-5.50390625 8.43765625 -5.50390625 7.77765625 -5.50390625 7.09765625 C-6.49390625 7.09765625 -7.48390625 7.09765625 -8.50390625 7.09765625 C-8.25390625 5.22265625 -8.25390625 5.22265625 -7.50390625 3.09765625 C-5.50390625 1.91015625 -5.50390625 1.91015625 -3.50390625 1.09765625 C-2.50390625 0.09765625 -2.50390625 0.09765625 0 0 Z " fill="#37D2E1" transform="translate(73.50390625,-0.09765625)"/>
<path d="M0 0 C-0.309375 0.53625 -0.61875 1.0725 -0.9375 1.625 C-2.17827439 4.3984957 -2.5909675 7.00042837 -3 10 C-3.7425 9.7525 -4.485 9.505 -5.25 9.25 C-6.61125 9.12625 -6.61125 9.12625 -8 9 C-10.33454661 10.83358335 -10.33454661 10.83358335 -12 13 C-11.67 13.99 -11.34 14.98 -11 16 C-6.71 16 -2.42 16 2 16 C1.67 16.66 1.34 17.32 1 18 C-8.24 18 -17.48 18 -27 18 C-24.1168565 15.6934852 -21.27548073 13.43527863 -18.3125 11.25 C-14.16445373 8.18028834 -10.22741634 4.8812744 -6.296875 1.5390625 C-4 0 -4 0 0 0 Z " fill="#2EBEEF" transform="translate(123,158)"/>
<path d="M0 0 C8.91 0 17.82 0 27 0 C27 0.99 27 1.98 27 3 C18.75 2.67 10.5 2.34 2 2 C2 19.49 2 36.98 2 55 C1.34 55 0.68 55 0 55 C0 36.85 0 18.7 0 0 Z " fill="#45AFD0" transform="translate(93,73)"/>
<path d="M0 0 C0.99 0 1.98 0 3 0 C3.0270043 1.45823212 3.04639787 2.91660675 3.0625 4.375 C3.07410156 5.18710938 3.08570312 5.99921875 3.09765625 6.8359375 C3 9 3 9 2 11 C2.99 11 3.98 11 5 11 C5 11.99 5 12.98 5 14 C5.66 14.33 6.32 14.66 7 15 C6.01 15 5.02 15 4 15 C3.67 15.66 3.34 16.32 3 17 C3 16.34 3 15.68 3 15 C2.34 15 1.68 15 1 15 C1 15.66 1 16.32 1 17 C0.34 16.67 -0.32 16.34 -1 16 C-4.08733571 14.9708881 -5.91023948 15.03444984 -9 16 C-10.33333333 16.33333333 -11.66666667 16.66666667 -13 17 C-13 16.34 -13 15.68 -13 15 C-14.65 15 -16.3 15 -18 15 C-15.6875 12.5 -15.6875 12.5 -13 10 C-12.01 10 -11.02 10 -10 10 C-9.67 10.66 -9.34 11.32 -9 12 C-7.68 12 -6.36 12 -5 12 C-5.495 11.566875 -5.99 11.13375 -6.5 10.6875 C-8 9 -8 9 -8 6 C-6.68 6 -5.36 6 -4 6 C-4.33 5.01 -4.66 4.02 -5 3 C-3.35 2.67 -1.7 2.34 0 2 C0 1.34 0 0.68 0 0 Z " fill="#10DEF8" transform="translate(49,62)"/>
<path d="M0 0 C2.4375 0.75 2.4375 0.75 5 2 C5.8125 4.125 5.8125 4.125 6 6 C6.66 6 7.32 6 8 6 C10.34869747 7.97290587 11.00102287 9.00306862 12 12 C13.82327954 13.94483151 15.73219753 15.75203475 17.6875 17.5625 C19 19 19 19 20 22 C21.66666667 24.33333333 21.66666667 24.33333333 24 26 C26.70705512 25.85974801 26.70705512 25.85974801 29 25 C29 26.32 29 27.64 29 29 C29.66 29.33 30.32 29.66 31 30 C31.33 30.33 31.66 30.66 32 31 C34.41482413 31.50059916 34.41482413 31.50059916 37 31 C37.495 30.175 37.99 29.35 38.5 28.5 C38.995 27.675 39.49 26.85 40 26 C42.6875 25.6875 42.6875 25.6875 45 26 C40.79950939 30.44051865 37.67995318 33.61714955 31.5 34.5 C26.96838778 33.85262683 25.89614657 32.49022792 23 29 C22.13375 28.030625 21.2675 27.06125 20.375 26.0625 C13.25614369 17.65265939 6.55236881 8.85455245 0 0 Z " fill="#2ACAE3" transform="translate(48,118)"/>
<path d="M0 0 C1.32 0.33 2.64 0.66 4 1 C3.34 3.31 2.68 5.62 2 8 C4.97 8 7.94 8 11 8 C11 8.99 11 9.98 11 11 C2.42 11 -6.16 11 -15 11 C-11.88365565 7.88365565 -9.77568045 5.98720024 -6 4 C-5.34 4 -4.68 4 -4 4 C-4 4.66 -4 5.32 -4 6 C-3.34 6 -2.68 6 -2 6 C-1.34 4.02 -0.68 2.04 0 0 Z " fill="#16D7F6" transform="translate(69,48)"/>
<path d="M0 0 C2.98824414 2.89769129 5.71938778 5.85538366 8.375 9.0625 C11.57005146 12.7771862 14.61674735 14.85310074 19 17 C19 17.33 19 17.66 19 18 C13.72 18 8.44 18 3 18 C3 15.36 3 12.72 3 10 C2.34 9.67 1.68 9.34 1 9 C1.66 7.68 2.32 6.36 3 5 C2.34 5 1.68 5 1 5 C0.67 3.35 0.34 1.7 0 0 Z " fill="#19D4EE" transform="translate(45,158)"/>
<path d="M0 0 C0.66 0.66 1.32 1.32 2 2 C1.6390625 2.53109375 1.278125 3.0621875 0.90625 3.609375 C0.4421875 4.31578125 -0.021875 5.0221875 -0.5 5.75 C-0.9640625 6.44609375 -1.428125 7.1421875 -1.90625 7.859375 C-3.30333102 10.19301806 -3.30333102 10.19301806 -3 14 C-5.01914558 15.08168513 -6.8295605 15.95868133 -9.0625 16.5 C-11.30437677 16.96516768 -11.30437677 16.96516768 -14 19 C-14.6875 17.3125 -14.6875 17.3125 -15 15 C-13.04814761 10.40740614 -10.08080142 8.66139223 -6 6 C-5.67 5.01 -5.34 4.02 -5 3 C-2.4375 1.3125 -2.4375 1.3125 0 0 Z " fill="#23CBF8" transform="translate(107,16)"/>
<path d="M0 0 C0.66 0.33 1.32 0.66 2 1 C0.60553746 4.29406201 -0.88121044 5.95404753 -3.75 8.0625 C-4.554375 8.66578125 -5.35875 9.2690625 -6.1875 9.890625 C-7.115625 10.58671875 -8.04375 11.2828125 -9 12 C-11.25883308 13.75965886 -13.50369823 15.53688732 -15.75 17.3125 C-22.45888699 22.59544991 -29.22037088 27.80829066 -36 33 C-36.66 32.67 -37.32 32.34 -38 32 C-35.64722731 29.27573689 -33.37503669 28.1858237 -30 27 C-30.33 26.01 -30.66 25.02 -31 24 C-30.278125 23.773125 -29.55625 23.54625 -28.8125 23.3125 C-25.85849701 22.1290436 -25.85849701 22.1290436 -23.625 19.625 C-21.42189961 17.42189961 -19.90607688 16.25979087 -17.25 14.8125 C-13.95188165 13.37321065 -13.95188165 13.37321065 -13 11 C-12.34 11 -11.68 11 -11 11 C-11 10.34 -11 9.68 -11 9 C-10.0409375 8.566875 -10.0409375 8.566875 -9.0625 8.125 C-6.84793921 7.17176549 -6.84793921 7.17176549 -6 5 C-5.01 4.67 -4.02 4.34 -3 4 C-1.31461399 2.00334686 -1.31461399 2.00334686 0 0 Z " fill="#4FC1DD" transform="translate(151,95)"/>
<path d="M0 0 C0.8125 1.625 0.8125 1.625 1 4 C-2.58842828 9.5022567 -7.4666625 12.60043317 -13 16 C-12.34 14.02 -11.68 12.04 -11 10 C-11.66 9.34 -12.32 8.68 -13 8 C-11.625 6.5 -11.625 6.5 -10 5 C-9.34 5 -8.68 5 -8 5 C-7.67 4.01 -7.34 3.02 -7 2 C-4 0 -4 0 0 0 Z " fill="#12E2F4" transform="translate(34,32)"/>
<path d="M0 0 C0.33 0.99 0.66 1.98 1 3 C1.66 3 2.32 3 3 3 C3.66 1.68 4.32 0.36 5 -1 C5.66 -0.67 6.32 -0.34 7 0 C4.18020225 4.66351166 1.39582613 7.75091112 -3 11 C-3.66 11 -4.32 11 -5 11 C-4.67 9.35 -4.34 7.7 -4 6 C-6.64 5.01 -9.28 4.02 -12 3 C-12 2.34 -12 1.68 -12 1 C-7.67265609 -1.22923777 -4.71599818 -0.92470553 0 0 Z " fill="#25CCF7" transform="translate(98,133)"/>
<path d="M0 0 C0.66 0.33 1.32 0.66 2 1 C2 1.66 2 2.32 2 3 C1.01 3 0.02 3 -1 3 C-1 3.66 -1 4.32 -1 5 C-1.5775 5.2475 -2.155 5.495 -2.75 5.75 C-5.13449889 6.93990475 -5.13449889 6.93990475 -7.125 9.125 C-7.74375 9.74375 -8.3625 10.3625 -9 11 C-9.66 11 -10.32 11 -11 11 C-11 12.65 -11 14.3 -11 16 C-11.66 16 -12.32 16 -13 16 C-13.33 16.66 -13.66 17.32 -14 18 C-15.98821313 18.39764263 -17.99124558 18.72428861 -20 19 C-21.33737094 19.31674575 -22.67288808 19.64270064 -24 20 C-16.87715147 12.4022949 -8.21700606 6.35130903 0 0 Z " fill="#3FACDC" transform="translate(162,124)"/>
<path d="M0 0 C0.99773437 0.02320312 1.99546875 0.04640625 3.0234375 0.0703125 C4.52777344 0.09738281 4.52777344 0.09738281 6.0625 0.125 C6.83335938 0.14820312 7.60421875 0.17140625 8.3984375 0.1953125 C4.96481848 3.83090911 1.6010768 6.55644596 -2.6015625 9.1953125 C-3.2615625 8.2053125 -3.9215625 7.2153125 -4.6015625 6.1953125 C-5.5915625 6.8553125 -6.5815625 7.5153125 -7.6015625 8.1953125 C-7.9315625 6.5453125 -8.2615625 4.8953125 -8.6015625 3.1953125 C-7.9828125 3.0715625 -7.3640625 2.9478125 -6.7265625 2.8203125 C-3.75291797 1.94571117 -3.22474293 0.24209782 0 0 Z " fill="#29D1EF" transform="translate(73.6015625,-0.1953125)"/>
<path d="M0 0 C0 3 0 3 -2.25 5.4375 C-3.1575 6.283125 -4.065 7.12875 -5 8 C-5.86625 9.11375 -5.86625 9.11375 -6.75 10.25 C-10.19632847 12.9304777 -13.71501674 13.06132355 -18 13 C-21.64409753 12.20780488 -22.63153286 11.49128952 -24.875 8.5 C-25.24625 7.675 -25.6175 6.85 -26 6 C-25.67 5.34 -25.34 4.68 -25 4 C-24.319375 4.825 -23.63875 5.65 -22.9375 6.5 C-20.19986458 9.2639056 -20.19986458 9.2639056 -16.625 9.5625 C-9.73527965 8.49340546 -5.0874998 4.46707299 0 0 Z " fill="#072D39" transform="translate(96,142)"/>
<path d="M0 0 C2.31 0.33 4.62 0.66 7 1 C7 1.66 7 2.32 7 3 C7.99 3 8.98 3 10 3 C10.99 4.98 11.98 6.96 13 9 C13.66 8.67 14.32 8.34 15 8 C15 10.31 15 12.62 15 15 C11.08060535 11.19588166 7.50897269 7.18423892 4 3 C1.0280615 4.12451727 -1.33440687 5.22293791 -4 7 C-4.33 6.01 -4.66 5.02 -5 4 C-4.360625 3.71125 -3.72125 3.4225 -3.0625 3.125 C-0.84793921 2.17176549 -0.84793921 2.17176549 0 0 Z " fill="#49A4D7" transform="translate(159,89)"/>
<path d="M0 0 C0.99 0 1.98 0 3 0 C4.4296875 1.609375 4.4296875 1.609375 5.875 3.75 C7.77233107 6.44222289 9.17545175 8.13646247 11.8125 10.1875 C14.48476501 12.40166244 14.47472595 13.67326436 15 17 C15.99 17.66 16.98 18.32 18 19 C17.67 19.99 17.34 20.98 17 22 C12.1268851 17.43145478 8.1207108 12.24305151 4 7 C3.25878906 6.113125 2.51757812 5.22625 1.75390625 4.3125 C0 2 0 2 0 0 Z " fill="#022330" transform="translate(34,142)"/>
<path d="M0 0 C0.66 0.33 1.32 0.66 2 1 C-0.51515152 4.77272727 -0.51515152 4.77272727 -3 5.9375 C-5.22476827 6.89614602 -5.22476827 6.89614602 -6.4375 9.4375 C-8.25796858 12.42306846 -9.99816868 13.30665926 -13 15 C-13.99 16.485 -13.99 16.485 -15 18 C-18.125 18.1875 -18.125 18.1875 -21 18 C-17.66158302 14.57086517 -14.2225225 11.44375061 -10.5 8.4375 C-9.5821875 7.69371094 -8.664375 6.94992188 -7.71875 6.18359375 C-5.14838927 4.11918046 -2.57569365 2.05775525 0 0 Z " fill="#050713" transform="translate(149,100)"/>
<path d="M0 0 C0.33 0.99 0.66 1.98 1 3 C-8.71428571 11 -8.71428571 11 -12 11 C-12.020625 11.5775 -12.04125 12.155 -12.0625 12.75 C-13.60679013 16.4562963 -16.4367181 17.31212963 -20 19 C-20.66 18.67 -21.32 18.34 -22 18 C-14.99222817 11.6354536 -7.89006105 5.2600407 0 0 Z " fill="#48B8D0" transform="translate(101,19)"/>
<path d="M0 0 C0.86625 -0.02835938 1.7325 -0.05671875 2.625 -0.0859375 C5 0.375 5 0.375 6.8125 2.3984375 C7.204375 3.05070313 7.59625 3.70296875 8 4.375 C7.01 4.705 6.02 5.035 5 5.375 C4.34 4.715 3.68 4.055 3 3.375 C2.01 4.365 1.02 5.355 0 6.375 C-2 5.375 -2 5.375 -3 4.375 C-7.95 5.86 -7.95 5.86 -13 7.375 C-5.90463324 0.08786657 -5.90463324 0.08786657 0 0 Z " fill="#071821" transform="translate(87,-0.375)"/>
<path d="M0 0 C2.4375 0.75 2.4375 0.75 5 2 C5.8125 4.125 5.8125 4.125 6 6 C6.66 6 7.32 6 8 6 C10.34869747 7.97290587 11.00102287 9.00306862 12 12 C13.82327954 13.94483151 15.73219753 15.75203475 17.6875 17.5625 C19 19 19 19 20 22 C21.49985609 23.66710346 21.49985609 23.66710346 23 25 C22.34 25.66 21.68 26.32 21 27 C20.31035156 26.11699219 19.62070313 25.23398438 18.91015625 24.32421875 C13.58133545 17.51506411 8.20764205 10.75865841 2.6796875 4.109375 C1 2 1 2 0 0 Z " fill="#3DC5D6" transform="translate(48,118)"/>
<path d="M0 0 C0.99 0.33 1.98 0.66 3 1 C3 1.66 3 2.32 3 3 C1.68 3 0.36 3 -1 3 C-1 3.99 -1 4.98 -1 6 C-0.01 6.33 0.98 6.66 2 7 C2 7.66 2 8.32 2 9 C0.68 9.33 -0.64 9.66 -2 10 C-2.33 9.01 -2.66 8.02 -3 7 C-6.82344612 9.09207429 -9.98907075 10.83852428 -13 14 C-13.99 14.33 -14.98 14.66 -16 15 C-14.93261837 11.79785512 -14.43506653 11.28971025 -11.875 9.3359375 C-11.25109375 8.85382813 -10.6271875 8.37171875 -9.984375 7.875 C-9.32953125 7.38 -8.6746875 6.885 -8 6.375 C-6.70806586 5.3831608 -5.41638595 4.39099034 -4.125 3.3984375 C-3.09375 2.60695313 -2.0625 1.81546875 -1 1 C-0.67 0.67 -0.34 0.34 0 0 Z " fill="#28CFE1" transform="translate(42,65)"/>
<path d="M0 0 C5.28 0 10.56 0 16 0 C15.67 0.66 15.34 1.32 15 2 C12.35139573 2.59355614 9.70802678 2.74209269 7 3 C7.33 3.99 7.66 4.98 8 6 C7.01 6.495 7.01 6.495 6 7 C5.01 8.485 5.01 8.485 4 10 C3.71125 9.195625 3.4225 8.39125 3.125 7.5625 C2.26737432 4.8673532 2.26737432 4.8673532 0 4 C0 2.68 0 1.36 0 0 Z " fill="#22C8F5" transform="translate(97,0)"/>
<path d="M0 0 C6.35610454 6.09211298 11.99201045 13.15828132 16 21 C14.68 20.67 13.36 20.34 12 20 C12 19.34 12 18.68 12 18 C10.68 18 9.36 18 8 18 C7.938125 17.278125 7.87625 16.55625 7.8125 15.8125 C7.19854849 12.7978277 7.19854849 12.7978277 4.5625 10.6875 C1.2204206 7.18239234 0.87662602 4.70190319 0 0 Z " fill="#051E24" transform="translate(26,90)"/>
<path d="M0 0 C3.99744282 2.93762257 6.94690228 6.22660342 9.875 10.1875 C10.74573375 11.34532291 11.61682957 12.50287361 12.48828125 13.66015625 C13.1237085 14.50924561 13.1237085 14.50924561 13.77197266 15.37548828 C16.02944814 18.36181868 18.38084979 21.27494209 20.72265625 24.1953125 C22 26 22 26 23 29 C22.01 29 21.02 29 20 29 C18.61328125 27.3203125 18.61328125 27.3203125 17.3125 25.125 C16.87550781 24.40570313 16.43851563 23.68640625 15.98828125 22.9453125 C15 21 15 21 15 19 C14.34 19 13.68 19 13 19 C11.73828125 17.56640625 11.73828125 17.56640625 10.3125 15.5625 C7.43033914 11.57017348 4.40746231 7.71836226 1.3203125 3.8828125 C0 2 0 2 0 0 Z " fill="#39CAD6" transform="translate(22,129)"/>
<path d="M0 0 C0.99 0.33 1.98 0.66 3 1 C0.25525954 3.29802634 -2.49667067 5.58727433 -5.25 7.875 C-6.02730469 8.52597656 -6.80460938 9.17695312 -7.60546875 9.84765625 C-8.35957031 10.47285156 -9.11367187 11.09804687 -9.890625 11.7421875 C-10.92751465 12.60626221 -10.92751465 12.60626221 -11.98535156 13.48779297 C-13.9206858 14.94046629 -15.8038512 15.99666143 -18 17 C-17.62315413 13.60838718 -16.18726462 11.68691013 -13.734375 9.37109375 C-4.41025641 2 -4.41025641 2 0 2 C0 1.34 0 0.68 0 0 Z " fill="#041325" transform="translate(169,116)"/>
<path d="M0 0 C0.33 0.99 0.66 1.98 1 3 C0.360625 3.309375 -0.27875 3.61875 -0.9375 3.9375 C-2.93610821 4.8345163 -2.93610821 4.8345163 -4 6 C-4.99 6.33 -5.98 6.66 -7 7 C-7 7.66 -7 8.32 -7 9 C-7.804375 9.12375 -8.60875 9.2475 -9.4375 9.375 C-10.283125 9.58125 -11.12875 9.7875 -12 10 C-12.33 10.66 -12.66 11.32 -13 12 C-13.125 5.25 -13.125 5.25 -12 3 C-11.443125 3.20625 -10.88625 3.4125 -10.3125 3.625 C-6.17126735 4.29655124 -3.36738634 2.24492423 0 0 Z " fill="#13D6F4" transform="translate(69,5)"/>
<path d="M0 0 C0 0.99 0 1.98 0 3 C-0.99 3.495 -0.99 3.495 -2 4 C-2.1546875 4.8971875 -2.1546875 4.8971875 -2.3125 5.8125 C-3.30865798 8.98209357 -5.37284202 10.06090721 -8 12 C-9.0173873 12.98230498 -10.02596117 13.97469597 -11 15 C-11 14.34 -11 13.68 -11 13 C-12.32 12.67 -13.64 12.34 -15 12 C-13.06401165 10.37316948 -11.12629031 8.74848531 -9.1875 7.125 C-8.64029297 6.66480469 -8.09308594 6.20460938 -7.52929688 5.73046875 C-5.08054339 3.68242038 -2.65921675 1.77281117 0 0 Z " fill="#031D25" transform="translate(31,40)"/>
<path d="M0 0 C0.33 0 0.66 0 1 0 C1 2.31 1 4.62 1 7 C1.639375 7.103125 2.27875 7.20625 2.9375 7.3125 C3.618125 7.539375 4.29875 7.76625 5 8 C5.33 8.99 5.66 9.98 6 11 C5.67 11.66 5.34 12.32 5 13 C5.66 13 6.32 13 7 13 C8.02611949 14.65071396 9.02308143 16.31970006 10 18 C10.53625 18.515625 11.0725 19.03125 11.625 19.5625 C13.28484848 21.29779613 13.59736483 22.66471604 14 25 C10.16115605 22.27240035 8.64598707 20.35010868 7 16 C6.01 15.67 5.02 15.34 4 15 C0.23719073 9.73206703 -0.4501614 6.41479997 0 0 Z " fill="#39C9D5" transform="translate(25,80)"/>
<path d="M0 0 C4.85714286 2.42857143 4.85714286 2.42857143 7 5 C7 5.66 7 6.32 7 7 C5.68 7 4.36 7 3 7 C2.67 6.01 2.34 5.02 2 4 C1.34 4 0.68 4 0 4 C-0.66 5.32 -1.32 6.64 -2 8 C-3.65 7.67 -5.3 7.34 -7 7 C-7 7.66 -7 8.32 -7 9 C-7.99 8.67 -8.98 8.34 -10 8 C-6.7 5.36 -3.4 2.72 0 0 Z " fill="#051725" transform="translate(161,91)"/>
<path d="M0 0 C1.4540625 0.0309375 1.4540625 0.0309375 2.9375 0.0625 C3.4325 1.5475 3.4325 1.5475 3.9375 3.0625 C-9.2625 3.0625 -22.4625 3.0625 -36.0625 3.0625 C-36.0625 2.7325 -36.0625 2.4025 -36.0625 2.0625 C-29.01569344 1.12292579 -22.16510163 0.9724797 -15.0625 1.0625 C-13.0000508 1.08786838 -10.93754276 1.10894908 -8.875 1.125 C-7.97394531 1.13660156 -7.07289062 1.14820313 -6.14453125 1.16015625 C-3.22743241 1.02333173 -3.28090547 0.06695725 0 0 Z " fill="#25C9F4" transform="translate(116.0625,55.9375)"/>
<path d="M0 0 C1.65 0 3.3 0 5 0 C5.66 1.32 6.32 2.64 7 4 C7.33 4 7.66 4 8 4 C8.12375 5.175625 8.12375 5.175625 8.25 6.375 C8.4975 7.24125 8.745 8.1075 9 9 C9.66 9.309375 10.32 9.61875 11 9.9375 C11.66 10.288125 12.32 10.63875 13 11 C13.75 14.125 13.75 14.125 14 17 C12.02 17.99 12.02 17.99 10 19 C10.24234375 18.44183594 10.4846875 17.88367188 10.734375 17.30859375 C11.26411215 14.85254406 11.26411215 14.85254406 9.453125 12.59765625 C8.36257812 11.34275391 8.36257812 11.34275391 7.25 10.0625 C4.47648614 6.83504772 2.09669479 3.70902654 0 0 Z " fill="#3BC4DE" transform="translate(92,0)"/>
<path d="M0 0 C0 3 0 3 -1.6875 5 C-4 7 -4 7 -6.4375 8.4375 C-9.19387036 9.96018428 -9.19387036 9.96018428 -11.5625 12.75 C-12.7690625 13.86375 -12.7690625 13.86375 -14 15 C-16.15234375 14.640625 -16.15234375 14.640625 -18 14 C-12.13142165 9.12897384 -6.28303486 4.32831291 0 0 Z " fill="#05202E" transform="translate(127,118)"/>
<path d="M0 0 C-5 5 -5 5 -6.65625 6.34375 C-8.53384748 8.65799806 -8.30181496 10.2534161 -8.1875 13.1875 C-8.16042969 14.08855469 -8.13335938 14.98960938 -8.10546875 15.91796875 C-8.07066406 16.60503906 -8.03585938 17.29210937 -8 18 C-8.66 18 -9.32 18 -10 18 C-11.61844165 13.14467506 -11.55295003 8.85724099 -9.625 4.125 C-7.12152428 -0.68937638 -5.11638432 -0.11122575 0 0 Z " fill="#042A35" transform="translate(34,72)"/>
<path d="M0 0 C0.66 0.33 1.32 0.66 2 1 C0.71937515 2.7074998 -0.61767557 4.37373596 -2 6 C-2.66 6 -3.32 6 -4 6 C-4.2475 6.61875 -4.495 7.2375 -4.75 7.875 C-6.20628639 10.35068687 -7.37812506 10.95125002 -10 12 C-9.67 13.65 -9.34 15.3 -9 17 C-10.65 17.66 -12.3 18.32 -14 19 C-12.19036627 10.95718344 -5.72441065 5.55094366 0 0 Z " fill="#02252A" transform="translate(14,53)"/>
<path d="M0 0 C-5.28 4.29 -10.56 8.58 -16 13 C-16.66 12.01 -17.32 11.02 -18 10 C-17.01 9.67 -16.02 9.34 -15 9 C-15 8.34 -15 7.68 -15 7 C-14.360625 6.87625 -13.72125 6.7525 -13.0625 6.625 C-12.381875 6.41875 -11.70125 6.2125 -11 6 C-10.67 5.34 -10.34 4.68 -10 4 C-9.34 4.33 -8.68 4.66 -8 5 C-7.731875 4.195625 -7.46375 3.39125 -7.1875 2.5625 C-6.795625 1.716875 -6.40375 0.87125 -6 0 C-3 -1 -3 -1 0 0 Z " fill="#041F26" transform="translate(55,56)"/>
<path d="M0 0 C-5.55637669 4.50547245 -11.12662475 8.91417374 -17 13 C-16.67 11.35 -16.34 9.7 -16 8 C-15.34 8 -14.68 8 -14 8 C-13.67 7.01 -13.34 6.02 -13 5 C-11.01679982 3.96708324 -9.01652194 2.9662501 -7 2 C-6.67 1.34 -6.34 0.68 -6 0 C-2.49056604 -1.24528302 -2.49056604 -1.24528302 0 0 Z " fill="#03202D" transform="translate(97,23)"/>
<path d="M0 0 C2.98824414 2.89769129 5.71938778 5.85538366 8.375 9.0625 C11.57005146 12.7771862 14.61674735 14.85310074 19 17 C19 17.33 19 17.66 19 18 C17.35 18 15.7 18 14 18 C14 17.34 14 16.68 14 16 C13.41347656 15.92523438 12.82695313 15.85046875 12.22265625 15.7734375 C9.22952942 14.73189249 8.27986371 13.17216057 6.4375 10.625 C4.05684169 7.33953369 4.05684169 7.33953369 1.28515625 4.3984375 C0 3 0 3 0 0 Z " fill="#3EC4D6" transform="translate(45,158)"/>
<path d="M0 0 C1.65 0 3.3 0 5 0 C5.28875 0.804375 5.5775 1.60875 5.875 2.4375 C6.73262568 5.1326468 6.73262568 5.1326468 9 6 C9.625 8.5625 9.625 8.5625 10 11 C10.66 11 11.32 11 12 11 C11.67 12.32 11.34 13.64 11 15 C9.5369343 13.25395451 8.0797192 11.50300547 6.625 9.75 C5.81289063 8.77546875 5.00078125 7.8009375 4.1640625 6.796875 C2.42148243 4.5447318 1.123584 2.59288614 0 0 Z " fill="#031E21" transform="translate(21,126)"/>
<path d="M0 0 C2.64 0.33 5.28 0.66 8 1 C8.33 1.99 8.66 2.98 9 4 C4.25 7 4.25 7 2 7 C1.67 7.66 1.34 8.32 1 9 C-0.06546953 5.8035914 -0.07427838 3.34252724 0 0 Z " fill="#26C5F0" transform="translate(112,118)"/>
<path d="M0 0 C0 3.38864211 -0.27730139 5.07890236 -2 8 C-4.31074405 8.74118205 -6.64811553 9.40206327 -9 10 C-11.86678805 11.99082365 -11.86678805 11.99082365 -14 14 C-14 11 -14 11 -12.71484375 9.6496582 C-12.12832031 9.20452881 -11.54179688 8.75939941 -10.9375 8.30078125 C-10.30585937 7.81416016 -9.67421875 7.32753906 -9.0234375 6.82617188 C-8.02183594 6.0769043 -8.02183594 6.0769043 -7 5.3125 C-5.99839844 4.54583008 -5.99839844 4.54583008 -4.9765625 3.76367188 C-3.32409478 2.5007144 -1.6628489 1.24925765 0 0 Z " fill="#041D27" transform="translate(73,7)"/>
<path d="M0 0 C4.54109672 4.26587874 8.24735246 9.03612328 12 14 C11.01 14.495 11.01 14.495 10 15 C4.28946173 10.43156938 0.86396384 7.60288181 0 0 Z " fill="#041A20" transform="translate(58,131)"/>
<path d="M0 0 C1.65 0.33 3.3 0.66 5 1 C5.33 2.32 5.66 3.64 6 5 C1.545 8.465 1.545 8.465 -3 12 C-3.33 11.34 -3.66 10.68 -4 10 C-3.34 9.46375 -2.68 8.9275 -2 8.375 C0.31024799 6.10041408 0.31024799 6.10041408 0.25 2.75 C0.1675 1.8425 0.085 0.935 0 0 Z " fill="#03121A" transform="translate(64,39)"/>
<path d="M0 0 C0.66 0.33 1.32 0.66 2 1 C0.81174509 4.56476474 -0.19239435 5.13728429 -3.25 7.1875 C-4.01828125 7.71730469 -4.7865625 8.24710938 -5.578125 8.79296875 C-8.28260649 10.14084743 -10.01917789 10.23783155 -13 10 C-8.75259665 6.54898478 -4.38894929 3.26720791 0 0 Z " fill="#42B6D5" transform="translate(109,166)"/>
<path d="M0 0 C3.53191322 3.43153914 6.7137505 6.97375062 9.8125 10.8125 C10.60269531 11.78832031 11.39289062 12.76414062 12.20703125 13.76953125 C13.09455078 14.87361328 13.09455078 14.87361328 14 16 C13.01 16 12.02 16 11 16 C10.67 15.01 10.34 14.02 10 13 C9.34 13 8.68 13 8 13 C3 7.52380952 3 7.52380952 3 5 C2.01 4.67 1.02 4.34 0 4 C0 2.68 0 1.36 0 0 Z " fill="#34D5D9" transform="translate(8,111)"/>
<path d="M0 0 C0 4.29 0 8.58 0 13 C-0.99 13 -1.98 13 -3 13 C-2.67 9.37 -2.34 5.74 -2 2 C-2.99 2 -3.98 2 -5 2 C-5 2.66 -5 3.32 -5 4 C-6.65 4.33 -8.3 4.66 -10 5 C-6.99034612 1.54447147 -4.67591008 0 0 0 Z " fill="#37D7EB" transform="translate(54,60)"/>
<path d="M0 0 C2.475 0.99 2.475 0.99 5 2 C3.5741914 5.45195767 1.90253666 7.1014256 -1.125 9.25 C-1.84945312 9.77078125 -2.57390625 10.2915625 -3.3203125 10.828125 C-3.87460938 11.21484375 -4.42890625 11.6015625 -5 12 C-5.33 11.01 -5.66 10.02 -6 9 C-4.35 8.34 -2.7 7.68 -1 7 C-0.67 4.69 -0.34 2.38 0 0 Z " fill="#02101C" transform="translate(144,131)"/>
<path d="M0 0 C5.61 0 11.22 0 17 0 C17 0.33 17 0.66 17 1 C16.00097656 1.06058594 15.00195312 1.12117188 13.97265625 1.18359375 C12.68230469 1.26738281 11.39195313 1.35117188 10.0625 1.4375 C8.77472656 1.51871094 7.48695312 1.59992188 6.16015625 1.68359375 C3.13976043 1.64919188 3.13976043 1.64919188 2 3 C1.84417697 4.34015221 1.74955858 5.68758903 1.68359375 7.03515625 C1.64169922 7.84404297 1.59980469 8.65292969 1.55664062 9.48632812 C1.51732422 10.33646484 1.47800781 11.18660156 1.4375 12.0625 C1.39431641 12.91650391 1.35113281 13.77050781 1.30664062 14.65039062 C1.20023298 16.76672037 1.09958269 18.88333813 1 21 C0.67 21 0.34 21 0 21 C0 14.07 0 7.14 0 0 Z " fill="#26C6F3" transform="translate(95,75)"/>
<path d="M0 0 C0.66 0.33 1.32 0.66 2 1 C2 1.66 2 2.32 2 3 C1.01 3 0.02 3 -1 3 C-1 3.66 -1 4.32 -1 5 C-1.5775 5.2475 -2.155 5.495 -2.75 5.75 C-5.11856763 6.91638144 -5.11856763 6.91638144 -6.9375 9.0625 C-9.30839468 11.28970409 -10.81664932 11.64629437 -14 12 C-9.73412126 7.45890328 -4.96387672 3.75264754 0 0 Z " fill="#45A1CE" transform="translate(162,124)"/>
<path d="M0 0 C0.33 0 0.66 0 1 0 C0.98259766 0.90492187 0.98259766 0.90492187 0.96484375 1.828125 C0.95582031 2.62734375 0.94679688 3.4265625 0.9375 4.25 C0.92589844 5.03890625 0.91429687 5.8278125 0.90234375 6.640625 C0.99614694 8.90691002 1.36758937 10.8288895 2 13 C-1.25516428 9.83525695 -4.32008793 6.67247209 -7 3 C-7 2.34 -7 1.68 -7 1 C-6.01 1 -5.02 1 -4 1 C-4 1.99 -4 2.98 -4 4 C-2.68 4.33 -1.36 4.66 0 5 C0 3.35 0 1.7 0 0 Z " fill="#2DCCDB" transform="translate(46,104)"/>
<path d="M0 0 C2.60018816 3.90028225 2.15085514 7.47434569 2 12 C-0.5 10.375 -0.5 10.375 -3 8 C-3.5 4.875 -3.5 4.875 -3 2 C-2.01 1.34 -1.02 0.68 0 0 Z " fill="#0BE2F7" transform="translate(30,79)"/>
<path d="M0 0 C3.88192126 3.76774711 7.79531881 7.62797789 11 12 C11 12.66 11 13.32 11 14 C9.1875 13.8125 9.1875 13.8125 7 13 C4 8.82142857 4 8.82142857 4 6 C3.01 5.67 2.02 5.34 1 5 C-0.1875 2.9375 -0.1875 2.9375 -1 1 C-0.67 0.67 -0.34 0.34 0 0 Z " fill="#051E2A" transform="translate(42,111)"/>
<path d="M0 0 C2.72393906 3.63191875 5.36836492 7.30148583 8 11 C7.67 11.66 7.34 12.32 7 13 C5.5 11.625 5.5 11.625 4 10 C4 9.34 4 8.68 4 8 C3.34 8 2.68 8 2 8 C2 8.99 2 9.98 2 11 C1.34 11 0.68 11 0 11 C0 7.37 0 3.74 0 0 Z " fill="#26D9E1" transform="translate(0,98)"/>
<path d="M0 0 C2.6875 -0.3125 2.6875 -0.3125 5 0 C-2.4299569 7.85452586 -2.4299569 7.85452586 -8.3125 8.1875 C-9.6428125 8.0946875 -9.6428125 8.0946875 -11 8 C-9.8125 6.5 -9.8125 6.5 -8 5 C-7.175 5.04125 -6.35 5.0825 -5.5 5.125 C-4.2625 5.063125 -4.2625 5.063125 -3 5 C-2.505 4.175 -2.01 3.35 -1.5 2.5 C-1.005 1.675 -0.51 0.85 0 0 Z " fill="#48D1E4" transform="translate(88,144)"/>
<path d="M0 0 C0.66 0 1.32 0 2 0 C2 0.66 2 1.32 2 2 C3.65 2 5.3 2 7 2 C7.33 3.65 7.66 5.3 8 7 C6.02 7.99 6.02 7.99 4 9 C0 2.25 0 2.25 0 0 Z " fill="#061A1E" transform="translate(0,96)"/>
<path d="M0 0 C1.875 0.625 1.875 0.625 4 2 C4.70381157 3.98723268 5.3711811 5.98777953 6 8 C6.99 8.66 7.98 9.32 9 10 C8.67 10.99 8.34 11.98 8 13 C3.79955786 9.25365971 1.89249577 6.17946211 0 1 C0 0.67 0 0.34 0 0 Z " fill="#05181F" transform="translate(43,151)"/>
<path d="M0 0 C1.37562854 1.28965176 2.70766393 2.62689293 4 4 C4 4.66 4 5.32 4 6 C3.34 6 2.68 6 2 6 C2 6.66 2 7.32 2 8 C2.66 8 3.32 8 4 8 C4 8.66 4 9.32 4 10 C3.01 10.33 2.02 10.66 1 11 C0 10 0 10 -0.0625 6.9375 C-0.041875 5.968125 -0.02125 4.99875 0 4 C-0.66 3.67 -1.32 3.34 -2 3 C-1.34 2.01 -0.68 1.02 0 0 Z " fill="#14DBF5" transform="translate(48,164)"/>
<path d="M0 0 C0.66 0.33 1.32 0.66 2 1 C0.8141763 4.37503669 -0.27573689 6.64722731 -3 9 C-3 8.34 -3 7.68 -3 7 C-4.98 7.99 -4.98 7.99 -7 9 C-7 6 -7 6 -5.46875 4.39453125 C-4.49421875 3.61142578 -4.49421875 3.61142578 -3.5 2.8125 C-2.8503125 2.28269531 -2.200625 1.75289062 -1.53125 1.20703125 C-1.0259375 0.80871094 -0.520625 0.41039063 0 0 Z " fill="#031E25" transform="translate(47,27)"/>
<path d="M0 0 C0.66 0 1.32 0 2 0 C2.33 0.99 2.66 1.98 3 3 C2.360625 3.5775 1.72125 4.155 1.0625 4.75 C-0.98223868 6.98062401 -1.58205199 8.07436391 -2 11 C-3.65 10.67 -5.3 10.34 -7 10 C-5.625 8 -5.625 8 -4 6 C-3.34 6 -2.68 6 -2 6 C-1.855625 5.195625 -1.71125 4.39125 -1.5625 3.5625 C-1 1 -1 1 0 0 Z " fill="#2DC8F4" transform="translate(112,164)"/>
<path d="M0 0 C0.66 0.66 1.32 1.32 2 2 C-1.63 4.97 -5.26 7.94 -9 11 C-9.66 10.67 -10.32 10.34 -11 10 C-9.75443753 7.50887505 -8.28597187 6.53958835 -6.0625 4.875 C-5.35222656 4.33617187 -4.64195313 3.79734375 -3.91015625 3.2421875 C-2 2 -2 2 0 2 C0 1.34 0 0.68 0 0 Z " fill="#062233" transform="translate(118,156)"/>
<path d="M0 0 C0.60134766 0.6496875 0.60134766 0.6496875 1.21484375 1.3125 C4.69600045 4.72261269 6.94615608 6.42238618 11.9375 6.375 C13.29409299 6.27987996 14.65015829 6.16528674 16 6 C16.33 6.66 16.66 7.32 17 8 C7.0296496 9.60742033 7.0296496 9.60742033 3 7 C0 2.86206897 0 2.86206897 0 0 Z " fill="#031B26" transform="translate(70,146)"/>
<path d="M0 0 C-0.33 0.33 -0.66 0.66 -1 1 C0.32 1.33 1.64 1.66 3 2 C1.4375 3.625 1.4375 3.625 -1 5 C-4.75 4.1875 -4.75 4.1875 -8 3 C-8 2.34 -8 1.68 -8 1 C-3.375 -1.125 -3.375 -1.125 0 0 Z " fill="#1EC3ED" transform="translate(126,113)"/>
<path d="M0 0 C0 0.99 0 1.98 0 3 C-1.32 3.33 -2.64 3.66 -4 4 C-4 4.66 -4 5.32 -4 6 C-5.8125 7.0625 -5.8125 7.0625 -8 8 C-8.99 7.67 -9.98 7.34 -11 7 C-9.54634731 5.82750647 -8.08692581 4.66216184 -6.625 3.5 C-5.40683594 2.52546875 -5.40683594 2.52546875 -4.1640625 1.53125 C-2 0 -2 0 0 0 Z " fill="#3BB8D3" transform="translate(79,38)"/>
<path d="M0 0 C0.33 0.99 0.66 1.98 1 3 C-1 5 -1 5 -2.875 5.375 C-5.7157757 6.21052226 -7.04507731 7.83562131 -9 10 C-9.66 9.34 -10.32 8.68 -11 8 C-7.37 5.36 -3.74 2.72 0 0 Z " fill="#031F28" transform="translate(108,133)"/>
<path d="M0 0 C0.66 0.33 1.32 0.66 2 1 C0.59070303 4.47132095 -0.90605083 5.88093274 -4.125 7.75 C-4.84945312 8.17796875 -5.57390625 8.6059375 -6.3203125 9.046875 C-6.87460938 9.36140625 -7.42890625 9.6759375 -8 10 C-8.33 9.01 -8.66 8.02 -9 7 C-8.34 7 -7.68 7 -7 7 C-6.67 6.34 -6.34 5.68 -6 5 C-5.01 4.67 -4.02 4.34 -3 4 C-1.31461399 2.00334686 -1.31461399 2.00334686 0 0 Z " fill="#49B9E7" transform="translate(151,95)"/>
<path d="M0 0 C0.66 0 1.32 0 2 0 C2.12375 0.804375 2.2475 1.60875 2.375 2.4375 C2.684375 3.7059375 2.684375 3.7059375 3 5 C3.66 5.33 4.32 5.66 5 6 C3.75 7.5625 3.75 7.5625 2 9 C-0.1875 8.6875 -0.1875 8.6875 -2 8 C-2 7.34 -2 6.68 -2 6 C-1.34 6 -0.68 6 0 6 C0 4.02 0 2.04 0 0 Z " fill="#11DBEF" transform="translate(43,158)"/>
<path d="M0 0 C0.66 0.33 1.32 0.66 2 1 C-0.06092467 4.09138701 -1.6984082 5.40245558 -5 7 C-5.99 8.485 -5.99 8.485 -7 10 C-8.32 9.67 -9.64 9.34 -11 9 C-7.37 6.03 -3.74 3.06 0 0 Z " fill="#062336" transform="translate(149,100)"/>
<path d="M0 0 C0.33 0 0.66 0 1 0 C1 2.31 1 4.62 1 7 C2.98 7.495 2.98 7.495 5 8 C5 9.32 5 10.64 5 12 C1.125 10.25 1.125 10.25 0 8 C-0.13415472 5.3276379 -0.04318541 2.67749512 0 0 Z " fill="#32D6E3" transform="translate(25,80)"/>
<path d="M0 0 C-4.625 4.875 -4.625 4.875 -8 6 C-8.33 4.68 -8.66 3.36 -9 2 C-5.5647952 -0.29013653 -4.014669 -0.17842973 0 0 Z " fill="#071D26" transform="translate(34,72)"/>
<path d="M0 0 C0.99 0.33 1.98 0.66 3 1 C2.3125 2.9375 2.3125 2.9375 1 5 C-1.625 5.75 -1.625 5.75 -4 6 C-3.6875 4.125 -3.6875 4.125 -3 2 C-2.01 1.34 -1.02 0.68 0 0 Z " fill="#050F12" transform="translate(35,66)"/>
<path d="M0 0 C1.65 0.33 3.3 0.66 5 1 C1.56638098 4.63559661 -1.7973607 7.36113346 -6 10 C-4.92730209 7.40764673 -4.16833074 6.1237726 -1.875 4.4375 C-1.25625 3.963125 -0.6375 3.48875 0 3 C0 2.01 0 1.02 0 0 Z " fill="#3AD9DE" transform="translate(27,38)"/>
<path d="M0 0 C0 0.99 0 1.98 0 3 C-5.2734375 6.22265625 -5.2734375 6.22265625 -7 7 C-7.66 6.67 -8.32 6.34 -9 6 C-3.85714286 0.42857143 -3.85714286 0.42857143 0 0 Z " fill="#39C3DA" transform="translate(88,31)"/>
<path d="M0 0 C2.93706939 2.78248679 5.43415863 5.87938211 8 9 C7.01 9.33 6.02 9.66 5 10 C0.76169024 7.17446016 1.02284652 4.87819112 0 0 Z " fill="#03292D" transform="translate(26,90)"/>
<path d="M0 0 C0.33 0 0.66 0 1 0 C1.2506019 1.41303238 1.47461921 2.83079474 1.6875 4.25 C1.81511719 5.03890625 1.94273438 5.8278125 2.07421875 6.640625 C1.98023653 9.62827019 0.95457437 10.80926883 -1 13 C-1.02686553 11.02090602 -1.04633375 9.04171029 -1.0625 7.0625 C-1.07410156 5.96035156 -1.08570312 4.85820313 -1.09765625 3.72265625 C-1 1 -1 1 0 0 Z " fill="#20E5F0" transform="translate(1,57)"/>
<path d="M0 0 C1.98 0.66 3.96 1.32 6 2 C6.33 3.98 6.66 5.96 7 8 C5.02 8.99 5.02 8.99 3 10 C3.2475 9.46375 3.495 8.9275 3.75 8.375 C4.13553144 4.71245136 2.13181966 2.84242621 0 0 Z " fill="#3EB6D6" transform="translate(99,9)"/>
<path d="M0 0 C0.99 0.33 1.98 0.66 3 1 C2.04578192 2.14926266 1.08647955 3.29430541 0.125 4.4375 C-0.40867187 5.07558594 -0.94234375 5.71367188 -1.4921875 6.37109375 C-3 8 -3 8 -5 9 C-3.90931332 5.22454612 -3.0916909 2.52956528 0 0 Z " fill="#2ED4D4" transform="translate(8,55)"/>
<path d="M0 0 C1.4540625 0.0309375 1.4540625 0.0309375 2.9375 0.0625 C3.2675 0.7225 3.5975 1.3825 3.9375 2.0625 C0.9675 2.7225 -2.0025 3.3825 -5.0625 4.0625 C-3.73373288 0.07619863 -3.73373288 0.07619863 0 0 Z " fill="#21D2FB" transform="translate(81.0625,143.9375)"/>
<path d="M0 0 C3.28788824 3.11016455 5.83735988 6.01618925 8 10 C6.25 9.9375 6.25 9.9375 4 9 C1.99159505 6.29950956 0 3.44873267 0 0 Z " fill="#052A38" transform="translate(62,136)"/>
<path d="M0 0 C2.86697492 1.28519565 4.97607712 2.57129254 7 5 C7 5.66 7 6.32 7 7 C5.68 7 4.36 7 3 7 C2.71125 6.38125 2.4225 5.7625 2.125 5.125 C1.06279958 2.86674235 1.06279958 2.86674235 -1 1 C-0.67 0.67 -0.34 0.34 0 0 Z " fill="#051D34" transform="translate(161,91)"/>
<path d="M0 0 C0.98120464 3.05263664 0.98120464 4.94736336 0 8 C-1.32 8.33 -2.64 8.66 -4 9 C-2.94124926 5.59687262 -1.99097846 2.98646769 0 0 Z " fill="#072932" transform="translate(4,63)"/>
<path d="M0 0 C0.33 0.66 0.66 1.32 1 2 C-0.65 3.98 -2.3 5.96 -4 8 C-4.66 7.01 -5.32 6.02 -6 5 C-4.02 3.35 -2.04 1.7 0 0 Z " fill="#41B0D1" transform="translate(119,158)"/>
<path d="M0 0 C0.33 0.66 0.66 1.32 1 2 C0.34 2 -0.32 2 -1 2 C-1.226875 2.639375 -1.45375 3.27875 -1.6875 3.9375 C-3 6 -3 6 -5.625 6.75 C-6.800625 6.87375 -6.800625 6.87375 -8 7 C-5.42215154 4.35247996 -3.08351902 2.05567935 0 0 Z " fill="#41A1C1" transform="translate(137,144)"/>
<path d="M0 0 C3.73884332 2.65654657 5.64978174 4.58110387 7 9 C4 8 4 8 2 5 C1.01904252 3.98131338 0.02297922 2.97648017 -1 2 C-0.67 1.34 -0.34 0.68 0 0 Z " fill="#16DFEE" transform="translate(28,139)"/>
<path d="M0 0 C1.65 0.33 3.3 0.66 5 1 C3.37660195 2.70884005 1.70680947 4.37446717 0 6 C-0.66 6 -1.32 6 -2 6 C-1.34 4.02 -0.68 2.04 0 0 Z " fill="#3FC4E4" transform="translate(95,138)"/>
<path d="M0 0 C0 3 0 3 -1.75 5.25 C-2.86375 6.11625 -2.86375 6.11625 -4 7 C-5.32 6.67 -6.64 6.34 -8 6 C-5.36 4.02 -2.72 2.04 0 0 Z " fill="#48ADD3" transform="translate(128,151)"/>
<path d="M0 0 C2.625 -0.1875 2.625 -0.1875 5 0 C4.1875 1.9375 4.1875 1.9375 3 4 C2.01 4.33 1.02 4.66 0 5 C-0.66 4.34 -1.32 3.68 -2 3 C-1.34 2.01 -0.68 1.02 0 0 Z " fill="#22CAF0" transform="translate(90,140)"/>
<path d="M0 0 C0.66 0 1.32 0 2 0 C2 0.66 2 1.32 2 2 C2.99 2 3.98 2 5 2 C5.12375 2.804375 5.2475 3.60875 5.375 4.4375 C5.684375 5.7059375 5.684375 5.7059375 6 7 C6.66 7.33 7.32 7.66 8 8 C7.01 8 6.02 8 5 8 C3.61328125 6.50390625 3.61328125 6.50390625 2.3125 4.5625 C1.87550781 3.92441406 1.43851563 3.28632812 0.98828125 2.62890625 C0 1 0 1 0 0 Z " fill="#012D37" transform="translate(14,117)"/>
<path d="M0 0 C0.99 0 1.98 0 3 0 C1.61122646 3.35620271 0.08322035 5.07298728 -3 7 C-3.66 7 -4.32 7 -5 7 C-5 5 -5 5 -3.625 3.375 C-2 2 -2 2 0 2 C0 1.34 0 0.68 0 0 Z " fill="#54B4D9" transform="translate(140,104)"/>
<path d="M0 0 C1.32 0.33 2.64 0.66 4 1 C3.34 1 2.68 1 2 1 C1.67 1.99 1.34 2.98 1 4 C-1.5625 5.6875 -1.5625 5.6875 -4 7 C-4.33 6.01 -4.66 5.02 -5 4 C-4.360625 3.71125 -3.72125 3.4225 -3.0625 3.125 C-0.84793921 2.17176549 -0.84793921 2.17176549 0 0 Z " fill="#53AFDD" transform="translate(159,89)"/>
<path d="M0 0 C1.32 0.33 2.64 0.66 4 1 C3.34 2.32 2.68 3.64 2 5 C0.68 5 -0.64 5 -2 5 C-1.34 3.35 -0.68 1.7 0 0 Z " fill="#34B1EC" transform="translate(155,88)"/>
<path d="M0 0 C0.66 0.33 1.32 0.66 2 1 C0.60667426 4.36720387 -0.9789286 5.9859524 -4 8 C-3.67 6.35 -3.34 4.7 -3 3 C-2.34 3 -1.68 3 -1 3 C-0.67 2.01 -0.34 1.02 0 0 Z " fill="#051520" transform="translate(84,28)"/>
<path d="M0 0 C0.86625 0.2784375 0.86625 0.2784375 1.75 0.5625 C4.20692525 1.04023546 5.64397534 0.75729364 8 0 C4.55384615 4.8 4.55384615 4.8 1.75 5.8125 C0.88375 5.9053125 0.88375 5.9053125 0 6 C0.33 5.01 0.66 4.02 1 3 C0.67 2.01 0.34 1.02 0 0 Z " fill="#3BDCEC" transform="translate(49,19)"/>
<path d="M0 0 C1.32 0.33 2.64 0.66 4 1 C1.03 2.65 -1.94 4.3 -5 6 C-3 2 -3 2 0 0 Z " fill="#072233" transform="translate(100,170)"/>
<path d="M0 0 C1.98 0.495 1.98 0.495 4 1 C3.67 2.32 3.34 3.64 3 5 C1.68 4.67 0.36 4.34 -1 4 C-0.67 2.68 -0.34 1.36 0 0 Z " fill="#0BDAF8" transform="translate(69,48)"/>
<path d="M0 0 C0.99 0.66 1.98 1.32 3 2 C1.95125002 4.62187494 1.35068687 5.79371361 -1.125 7.25 C-1.74375 7.4975 -2.3625 7.745 -3 8 C-2.625 6.0625 -2.625 6.0625 -2 4 C-1.34 3.67 -0.68 3.34 0 3 C0 2.01 0 1.02 0 0 Z " fill="#03212C" transform="translate(101,13)"/>
<path d="M0 0 C0 3 0 3 -2 5.1875 C-2.66 5.785625 -3.32 6.38375 -4 7 C-4.66 6.67 -5.32 6.34 -6 6 C-2.25 1.125 -2.25 1.125 0 0 Z " fill="#051526" transform="translate(127,118)"/>
<path d="M0 0 C0.66 0 1.32 0 2 0 C1.67 1.65 1.34 3.3 1 5 C0.01 5.33 -0.98 5.66 -2 6 C-1.125 1.125 -1.125 1.125 0 0 Z " fill="#21D3F8" transform="translate(56,118)"/>
<path d="M0 0 C2.5 2.3125 2.5 2.3125 5 5 C5 5.99 5 6.98 5 8 C4.67 7.34 4.34 6.68 4 6 C3.01 5.67 2.02 5.34 1 5 C-0.1875 2.9375 -0.1875 2.9375 -1 1 C-0.67 0.67 -0.34 0.34 0 0 Z " fill="#062833" transform="translate(42,111)"/>
<path d="M0 0 C0.66 0.33 1.32 0.66 2 1 C0.35 2.98 -1.3 4.96 -3 7 C-4.32 6.67 -5.64 6.34 -7 6 C-4.69 4.02 -2.38 2.04 0 0 Z " fill="#032333" transform="translate(135,111)"/>
<path d="M0 0 C0.99 0.33 1.98 0.66 3 1 C3 1.66 3 2.32 3 3 C1.68 3 0.36 3 -1 3 C-1.33 3.99 -1.66 4.98 -2 6 C-2.99 5.34 -3.98 4.68 -5 4 C-2.6875 1.9375 -2.6875 1.9375 0 0 Z " fill="#2CC2D5" transform="translate(42,65)"/>
<path d="M0 0 C2.5 2.3125 2.5 2.3125 5 5 C5 5.99 5 6.98 5 8 C4.01 7.67 3.02 7.34 2 7 C0.8125 3.4375 0.8125 3.4375 0 0 Z " fill="#082130" transform="translate(95,5)"/>
<path d="M0 0 C1.65 1.65 3.3 3.3 5 5 C4.01 5.33 3.02 5.66 2 6 C1.34 5.67 0.68 5.34 0 5 C0 3.35 0 1.7 0 0 Z " fill="#022326" transform="translate(53,125)"/>
<path d="M0 0 C0.33 0.99 0.66 1.98 1 3 C-0.375 4.5 -0.375 4.5 -2 6 C-2.66 6 -3.32 6 -4 6 C-3.6875 4.125 -3.6875 4.125 -3 2 C-2.01 1.34 -1.02 0.68 0 0 Z " fill="#3EB3D3" transform="translate(101,19)"/>
</svg>
